<svg width="6986" height="5379" viewBox="0 0 6986 5379" fill="none" xmlns="http://www.w3.org/2000/svg">
<path d="M3294.26 4382.2C3304.26 4387 3315.93 4410.36 3323.26 4429.7C3325.37 4427.02 3474.29 4376.35 3480.47 4375.78H3480.48C3487 4375.19 3494.64 4374.49 3501 4371C3508.67 4366.79 3540.33 4343.25 3572.19 4319.56C3584.5 4310.4 3595.54 4305.06 3605.4 4300.29C3621.58 4292.46 3634.61 4286.15 3645 4267C3656.54 4245.72 3656.21 4226.15 3655.86 4205.78C3655.82 4203.38 3655.78 4200.97 3655.75 4198.55V4198.54C3655.69 4191.07 3655.63 4185.33 3656 4183C3657.5 4173.5 3653.5 4082.5 3620.5 4051C3595.12 4026.78 3614.39 3978.01 3626.47 3947.45C3630.1 3938.27 3633.08 3930.74 3634 3926C3638 3905.5 3613.5 3823 3583 3823C3564.25 3823 3559.86 3781.98 3556.01 3745.97C3553.59 3723.41 3551.39 3702.82 3546 3695.5C3532 3676.5 3612 3600.5 3620.5 3604.5C3629 3608.5 3683.5 3547 3675.5 3518C3668.9 3494.06 3672.17 3476.93 3674.36 3465.5C3674.82 3463.08 3675.24 3460.92 3675.5 3459C3676.06 3454.91 3690.03 3445.15 3707 3433.29L3707 3433.29C3735.67 3413.27 3772.9 3387.26 3768.5 3372.5C3761.5 3349 3856.5 3352 3866 3356C3869.37 3357.42 3876.09 3361.3 3883.72 3365.71C3897.6 3373.72 3914.52 3383.5 3920 3383.5C3922.34 3383.5 3930.44 3381.64 3940.95 3379.23L3940.95 3379.23C3968.62 3372.89 3984.74 3372.57 4013 3372.5C4032.27 3372.45 4048.66 3375.51 4064.29 3378.43L4064.29 3378.43C4078.78 3381.13 4092.61 3383.71 4107.45 3383.57L4107.55 3383.57C4111.46 3383.53 4114.85 3383.5 4117.5 3383.5C4130.16 3383.5 4131.21 3370.3 4132.3 3356.63C4133.23 3344.93 4134.2 3332.88 4142.5 3328.5C4149.57 3324.77 4163.97 3309.78 4181.18 3291.85L4181.18 3291.85C4207.79 3264.14 4241.12 3229.43 4264.5 3218.5C4286.56 3208.19 4312.22 3184.58 4333.23 3165.27C4348.89 3150.87 4361.95 3138.85 4369 3136.5C4385.5 3131 4389.5 3052.5 4389.5 3037.5C4389.5 3030.58 4385.14 3022.39 4380.45 3013.56C4374.96 3003.24 4369 2992.05 4369 2981C4369 2971.35 4374.42 2951.08 4379.75 2931.17L4379.75 2931.17C4385.75 2908.76 4391.62 2886.82 4389.5 2881C4385.5 2870 4424 2843.5 4458 2843.5C4482.36 2843.5 4471.81 2821.68 4463.87 2805.26C4460.73 2798.77 4458 2793.12 4458 2790C4458 2785.53 4443.31 2778.18 4425.87 2769.44C4400.38 2756.67 4369 2740.95 4369 2727C4369 2713.41 4353.79 2694.81 4340.95 2679.11C4331.59 2667.67 4323.5 2657.77 4323.5 2652.5V2488C4323.5 2467.5 4273 2374 4255 2374C4245.22 2374 4246.07 2339.03 4246.88 2305.57C4247.56 2277.42 4248.21 2250.34 4242.5 2246C4231.79 2237.86 4233.56 2176.16 4234.29 2150.77C4234.41 2146.52 4234.5 2143.29 4234.5 2141.5C4234.5 2136.03 4230.01 2118.61 4225.16 2099.82L4225.15 2099.81C4222.15 2088.17 4220.78 2079.62 4219.47 2071.45C4219.47 2071.44 4219.47 2071.44 4219.47 2071.44C4218.06 2062.64 4216.73 2054.29 4213.5 2043C4213.08 2041.52 4212.69 2040.13 4212.32 2038.8C4212.05 2037.86 4211.8 2036.95 4211.56 2036.06L4211.56 2036.06C4208.92 2026.53 4207.09 2019.9 4201.77 2008.35L4201.76 2008.35C4196.65 1997.27 4191.6 1986.31 4190.5 1979.5C4189.3 1972.07 4179.48 1965.44 4168.64 1958.13C4156.88 1950.19 4143.92 1941.45 4139.5 1930C4131 1908 4082 1882 4075 1880.5C4072.81 1880.03 4067.92 1881.9 4062.46 1883.98C4059.53 1885.1 4056.43 1886.29 4053.49 1887.21C4049.62 1888.42 4045.8 1889.87 4042.19 1891.25C4035.59 1893.76 4029.7 1896 4025.5 1896C4017.93 1896 4017.51 1922.21 4017.14 1945.56C4017.03 1952.05 4016.11 1956.81 4015.27 1961.14C4014.15 1966.95 4013.17 1972 4014.5 1979.5C4021.37 2018.12 4069.5 2038.5 4099.5 2033C4123.5 2028.6 4156.5 2074.5 4170 2098C4160.33 2125.83 4142.4 2182.1 4148 2184.5C4155 2187.5 4170 2254.5 4170 2271C4170 2279.81 4173.14 2305.04 4176.06 2328.53C4176.06 2328.53 4176.06 2328.54 4176.06 2328.54C4176.07 2328.55 4176.07 2328.56 4176.07 2328.56L4176.07 2328.59C4178.62 2349.05 4181 2368.18 4181 2374C4181 2386.5 4227.5 2470 4242.5 2479.5C4256.21 2488.18 4255.3 2552.41 4255.04 2570.65C4255.02 2572.37 4255 2573.68 4255 2574.5C4255 2578.32 4252.98 2597.91 4250.56 2621.33C4246.97 2656.15 4242.5 2699.44 4242.5 2712C4242.5 2725.08 4256.85 2731.95 4270.09 2738.29C4278.11 2742.14 4285.73 2745.78 4289.5 2750.5C4299.5 2763 4323.5 2832.5 4323.5 2853.5C4323.5 2874.5 4267.5 2915 4255 2915C4249.12 2915 4240.59 2922.96 4228.2 2934.52C4214.26 2947.54 4195.42 2965.11 4170 2981C4123.69 3009.94 4076.91 2962.56 4066.49 2952C4066.11 2951.62 4065.78 2951.28 4065.5 2951C4060.56 2946.06 4042.31 2950.26 4025.17 2954.2C4014.53 2956.65 4004.32 2959 3998 2959C3981.5 2959 3961 2941 3940.5 2915C3926.88 2897.72 3934.23 2887.07 3944.8 2871.75C3950.14 2864.01 3956.3 2855.08 3961 2843.5C3971.21 2818.34 3966.53 2793.44 3963.24 2775.99C3962.73 2773.28 3962.6 2771.09 3962.48 2769.02C3962.3 2766.14 3962.14 2763.49 3961 2760C3953.39 2736.79 3926.04 2742.11 3901.26 2746.94C3893.13 2748.52 3885.29 2750.05 3878.5 2750.5C3860.17 2753.67 3822.1 2760 3816.5 2760C3810.9 2760 3785.17 2745.33 3773 2738C3769.45 2731.61 3766.77 2724.49 3763.95 2716.99C3759.49 2705.12 3754.68 2692.32 3745.5 2680C3728.87 2657.68 3696 2633.5 3691.5 2633.5C3687 2633.5 3646.5 2574.5 3648 2565C3649.2 2557.4 3624.5 2524.17 3612 2508.5C3599.5 2492.83 3620.5 2633.5 3620.5 2633.5C3617.67 2653.17 3609.3 2696.4 3598.5 2712C3589.76 2724.62 3614.73 2736.4 3635.34 2746.12L3635.34 2746.12L3635.35 2746.12C3635.35 2746.12 3635.35 2746.13 3635.35 2746.13C3646.59 2751.43 3656.53 2756.12 3659 2760C3661.87 2764.51 3669.96 2771.04 3678.88 2778.25C3691.7 2788.61 3706.26 2800.36 3709.5 2809.5C3715 2825 3779.5 2861.5 3790.5 2864.5C3801.5 2867.5 3878.5 2967.5 3878.5 2981C3878.5 2994.5 3952.5 3008.5 3961 3008.5C3964.98 3008.5 3977.26 3022.61 3990.34 3037.63C3990.35 3037.63 3990.35 3037.63 3990.35 3037.64L3990.35 3037.64C4005.24 3054.73 4021.15 3073 4027 3073C4038 3073 4045 3180 4046 3206.5C4047 3233 3944.5 3295.5 3933.5 3295.5C3930.56 3295.5 3923.21 3292.76 3913.27 3289.06L3913.27 3289.05C3893.45 3281.67 3863.35 3270.45 3837.5 3269.5C3818.17 3268.79 3796.52 3275.27 3778.83 3280.56C3763.15 3285.25 3750.58 3289.01 3745.5 3286C3732 3278 3635.5 3317.5 3620.5 3338C3611.77 3349.93 3597.45 3359.16 3581.24 3369.61C3581.23 3369.61 3581.23 3369.61 3581.23 3369.61C3577.01 3372.34 3572.66 3375.14 3568.24 3378.09C3566.99 3378.93 3565.46 3379.88 3564.06 3380.74C3561.87 3382.1 3560 3383.26 3560 3383.5C3560 3385 3542 3462 3520 3459C3509.46 3457.56 3502.41 3479.58 3494.15 3505.4L3494.15 3505.41C3488.62 3522.7 3482.54 3541.69 3474.5 3556.5C3462.89 3577.88 3446.27 3601.77 3432.68 3621.32L3432.68 3621.32C3419.65 3640.06 3409.39 3654.8 3409 3659.5C3408.84 3661.39 3408.62 3664.42 3408.35 3668.2C3408.34 3668.26 3408.34 3668.33 3408.34 3668.39L3408.33 3668.47C3407.8 3675.76 3406.01 3683.08 3404.15 3690.64L3404.15 3690.65C3400.82 3704.18 3397.3 3718.53 3400.5 3735C3403.67 3751.33 3409 3759.54 3416.77 3771.5C3419.82 3776.19 3423.24 3781.46 3427.05 3788.01L3427.05 3788.02L3427.05 3788.02C3435.67 3800.95 3444.78 3818.52 3446 3823C3447.88 3829.88 3476.38 3848.71 3499.77 3864.16L3499.78 3864.16L3499.78 3864.17C3504.13 3867.04 3507.66 3869.18 3510.77 3871.06C3517.68 3875.25 3522.51 3878.17 3529.5 3885C3561 3915.74 3562.5 3963 3560 3993.5C3558 4017.9 3581.17 4088.67 3593 4121C3593.83 4131.26 3595.87 4142.16 3598 4153.48C3603.94 4185.2 3610.52 4220.31 3593 4254.5C3571.02 4297.39 3526.33 4308.19 3484.91 4318.19C3468.17 4322.23 3308.22 4376.35 3294.26 4382.2Z" fill="#89CB79"/>
<path fill-rule="evenodd" clip-rule="evenodd" d="M1209.49 2657.73L1209.47 2657.7C1209.12 2657.12 1208.76 2656.55 1208.42 2655.99C1208.77 2656.56 1209.13 2657.14 1209.49 2657.73Z" fill="#BBCB79"/>
<path d="M1708.5 4399C1721.3 4387.4 1766.5 4385.83 1787.5 4386.5C1804.27 4387.03 1802.55 4372.84 1800.92 4359.34C1800.51 4355.94 1800.1 4352.57 1800 4349.5C1799.42 4332.22 1793.33 4305.17 1781 4309.5C1768.67 4313.83 1738 4324.5 1738 4324.5C1738 4324.5 1729 4339 1703.5 4317C1678 4295 1755 4239.5 1775 4239.5C1785.19 4239.5 1799.79 4227.03 1817.28 4212.1C1805.18 4203.13 1781 4180.56 1781 4162C1781 4138.79 1776.5 4101 1770 4101C1766.97 4101 1763.5 4086.31 1759.8 4070.64C1755.57 4052.71 1751.03 4033.5 1746.5 4033.5C1745.92 4033.5 1745.01 4033.52 1743.82 4033.55C1743.09 4033.57 1742.25 4033.59 1741.32 4033.62C1721.61 4034.15 1659.5 4035.84 1659.5 4022.5C1659.5 4007.5 1663 3949 1670.5 3941.5C1678 3934 1659 3835.5 1646.5 3836.5C1640.47 3836.98 1628.26 3829.08 1615.95 3821.11C1602.76 3812.57 1589.45 3803.95 1583.5 3805.5C1577.15 3807.16 1556.6 3792.94 1538.22 3780.23C1523.33 3769.92 1509.86 3760.6 1506.5 3761.5C1499 3763.5 1496.5 3684.5 1517 3671.5C1519.37 3669.99 1522.23 3668.21 1525.41 3666.21L1525.42 3666.21L1525.42 3666.2C1549.73 3650.96 1593.5 3623.51 1593.5 3616C1593.5 3613.72 1598.2 3607.18 1604.54 3598.34C1621.88 3574.19 1651.5 3532.94 1631 3515C1615.76 3501.66 1615.18 3516.77 1614.52 3534.28C1613.96 3548.93 1613.34 3565.27 1604 3568C1583.5 3574 1522.5 3552.5 1522.5 3542C1522.5 3531.5 1508.5 3473 1485 3468C1461.5 3463 1429.5 3388.5 1443.5 3377C1448.95 3372.52 1466.07 3369.64 1484.94 3366.46C1514.56 3361.46 1548.5 3355.74 1548.5 3342C1548.5 3335.11 1549.34 3325.17 1550.26 3314.43C1552.32 3290.08 1554.74 3261.59 1548.5 3255L1547.89 3254.35C1537.77 3243.68 1498.14 3201.87 1504.5 3196C1506.15 3194.48 1509.59 3188.56 1514.21 3180.62L1514.22 3180.6L1514.22 3180.6C1527.83 3157.22 1551.59 3116.39 1569.5 3119C1593.5 3122.5 1631 3114.5 1631 3098C1631 3090.02 1643.5 3098.64 1658.12 3108.71C1673.73 3119.47 1691.75 3131.89 1699.5 3127.5C1704.55 3124.64 1714.3 3122.91 1724.99 3121.02C1746.03 3117.29 1770.66 3112.92 1770 3098C1769 3075.5 1740.5 2983 1699.5 2997C1658.5 3011 1560 3006 1560 2984C1560 2975.72 1554.69 2968.71 1548.46 2960.5C1538.15 2946.9 1525.32 2929.99 1530 2898.5C1533.44 2875.31 1542.48 2850.96 1550.12 2830.34C1559.13 2806.06 1566.22 2786.95 1560 2781C1557.36 2778.47 1550.13 2769.43 1540.22 2757.04L1540.21 2757.04L1540.21 2757.03C1506.97 2715.46 1443.57 2636.19 1422 2638.5C1394 2641.5 1256.5 2521 1259.5 2504C1260.54 2498.09 1259.17 2484.88 1257.52 2469.02C1254.43 2439.24 1250.36 2400.12 1259.5 2382.5C1263.3 2375.17 1269.53 2365.9 1276.25 2355.88C1294.3 2329.01 1315.89 2296.84 1303.5 2283C1299.46 2278.49 1291.67 2272.93 1282.44 2266.35C1252.86 2245.25 1208.58 2213.67 1226.5 2172.5C1240.03 2141.42 1275.58 2120.94 1303.33 2104.96L1303.33 2104.96C1323.79 2093.17 1340 2083.84 1340 2074.5C1340 2068.5 1342.71 2057.46 1345.92 2044.39C1354.47 2009.53 1366.55 1960.32 1340 1954.5C1303.5 1946.5 1226.5 1912 1250 1864.5C1265.34 1833.5 1298.99 1805.91 1320.51 1788.26L1320.51 1788.26C1331.97 1778.86 1340 1772.28 1340 1769.5C1340 1767.06 1347.47 1760.36 1356.39 1752.35C1376.75 1734.07 1404.66 1709.02 1368.5 1712.5C1345.07 1714.75 1327.32 1725.94 1311.88 1735.68C1293.04 1747.55 1277.63 1757.26 1259.5 1746C1242.89 1735.68 1230.84 1706.23 1220.8 1681.69C1210.89 1657.48 1202.94 1638.06 1194.5 1646.5C1189.81 1651.19 1185.99 1656.38 1182.37 1661.31C1172.86 1674.23 1164.68 1685.34 1145.5 1681C1140.89 1679.96 1135.62 1679.05 1129.89 1678.06L1129.88 1678.06L1129.88 1678.06L1129.88 1678.06C1102.62 1673.37 1064.93 1666.89 1038.5 1635.5C1006.5 1597.5 960.5 1510 967 1483.5C973.5 1457 916.5 1414.5 904 1438C891.5 1461.5 833.5 1352.5 850.5 1341.5C852.123 1340.45 854.599 1338.9 857.741 1336.93C887.496 1318.28 976.95 1262.21 967 1240.5C963.709 1233.32 956.479 1222.87 948.47 1211.3C929.712 1184.19 906.685 1150.91 920 1139C939 1122 967 1084 967 1046C967 1022.35 948.8 992.51 935.051 969.966C926.705 956.283 920 945.288 920 940C920 935.299 908.217 924.002 893.227 909.63C863.576 881.201 821.376 840.74 833 815.5C842.556 794.75 878.499 774.597 913.233 755.122C942.11 738.93 970.151 723.208 981.5 708C992.1 693.796 1012.41 676.267 1032.28 659.109C1059.29 635.798 1085.5 613.172 1085.5 600.5C1085.5 578.5 1105 473.5 1120.5 456.5C1129.87 446.228 1132.48 402.363 1134.84 362.635C1136.39 336.617 1137.83 312.372 1141 300.5C1142.64 294.335 1145.96 285.467 1149.85 275.038L1149.85 275.035C1164.91 234.713 1188.69 171.054 1158.5 150C1120.5 123.5 1092.5 109.5 1048 112.5C1003.5 115.5 962.5 125.5 981.5 171C988.732 188.319 992.27 206.072 995.366 221.613C1000.41 246.902 1004.28 266.332 1021 268.5C1048 272 1059.5 419.5 1048 438C1043.45 445.325 1044.46 464.879 1045.57 486.42C1047.27 519.28 1049.22 556.762 1032 562.5C1003.5 572 936.5 552.5 908.5 535.5C880.5 518.5 897 444 908.5 415.5C920 387 861 357 847 376C833 395 790.5 434.5 765 425C757.377 422.16 744.838 415.656 731.005 408.48C698.564 391.651 659 371.128 659 385.5C659 388.09 658.92 391.158 658.832 394.542C658.224 417.952 657.221 456.5 679.5 456.5C705 456.5 764.5 549.5 779 575C793.5 600.5 793 733 779 760C765 787 739 815.5 720.5 815.5C702 815.5 659 929 659 956C659 967.711 645.925 985.63 631.893 1004.86C613.573 1029.97 593.62 1057.31 599 1076C602.791 1089.17 597.743 1110.7 592.627 1132.52C584.924 1165.38 577.067 1198.89 599 1205.5C603.465 1206.85 608.461 1208.31 613.815 1209.88L613.816 1209.88L613.819 1209.88C652.235 1221.15 709.091 1237.82 720.5 1254.5C726.735 1263.61 745.964 1269.73 764.29 1275.57C784.177 1281.9 803 1287.89 803 1297C803 1303.31 796.758 1313.59 789.901 1324.88C777.744 1344.89 763.655 1368.09 779 1378C789.261 1384.63 810.491 1426.54 834.013 1472.97C865.506 1535.14 901.109 1605.42 920 1610C953 1618 989 1646 994 1671.5C994.946 1676.32 995.498 1681.72 996.08 1687.41C998.573 1711.77 1001.61 1741.43 1038.5 1754C1059.97 1761.31 1071.64 1770.74 1079.82 1777.35C1088.98 1784.74 1093.76 1788.6 1103 1782C1120.5 1769.5 1177 1779 1174 1817C1173.45 1823.98 1173.32 1832.22 1173.18 1841.03C1172.57 1880.18 1171.78 1930.5 1133 1930.5C1112.54 1930.5 1079.46 1907.96 1046.44 1885.45C1002.79 1855.7 959.231 1826.01 945 1848.5C922.386 1884.23 952.14 1922.83 970.977 1947.26C972.964 1949.84 974.83 1952.26 976.5 1954.5C983.142 1963.42 998.21 1976.08 1014.35 1989.65C1040.74 2011.83 1070 2036.42 1070 2051C1070 2060.21 1082.06 2066.58 1097.11 2074.53C1120.47 2086.87 1151.05 2103.02 1155 2139.5C1156.81 2156.16 1157.03 2175.02 1157.26 2194.22V2194.22C1157.85 2244.15 1158.47 2296.33 1187 2318C1226.5 2348 1188 2430 1145.5 2458.5C1111.5 2481.3 1123 2527 1133 2547C1152.67 2573.33 1193.2 2628.5 1198 2638.5C1199.25 2641.11 1203.14 2647.45 1208.42 2655.99L1209.47 2657.7L1209.49 2657.73L1209.49 2657.73L1209.5 2657.74L1209.5 2657.75C1229.8 2690.62 1268.05 2752.57 1259.5 2765C1248.5 2781 1293 2859.5 1316.5 2858C1340 2856.5 1422 2878 1422 2911C1422 2924.6 1431.09 2933.62 1442.45 2944.88C1458.63 2960.93 1479.42 2981.54 1485 3026.5C1494.5 3103 1471 3217 1374.5 3196C1320.7 3184.29 1299.69 3143.99 1283.92 3113.73C1271.41 3089.72 1262.19 3072.04 1242.5 3080C1226.63 3086.42 1202.36 3088.51 1178 3090.62C1134.06 3094.41 1089.82 3098.23 1094 3127.5C1100.5 3173 1143 3268 1170.5 3268C1186.32 3268 1232.41 3322.43 1272.62 3369.91C1302.31 3404.97 1328.79 3436.24 1337.5 3439C1341.41 3440.24 1347.68 3441.7 1355.18 3443.45C1386.98 3450.86 1440.99 3463.44 1432.5 3486.5C1429.36 3495.01 1432.47 3509.99 1435.96 3526.82C1444.16 3566.32 1454.47 3616 1391 3616C1300.5 3616 1170.5 3579 1170.5 3568C1170.5 3562.69 1144.02 3553.41 1116.18 3543.65C1086.4 3533.22 1055.07 3522.24 1053 3515C1049 3501 945.5 3431 945.5 3486.5C945.5 3542 954 3605 987 3616C1001.84 3620.95 1026.68 3632.66 1050.85 3644.07L1050.86 3644.07C1080.44 3658.02 1109.02 3671.5 1117 3671.5C1122.68 3671.5 1131.04 3692.05 1141.21 3717.05C1157.02 3755.9 1177.21 3805.5 1198.5 3805.5C1233.5 3805.5 1320 3863 1325 3886C1325.85 3889.91 1327.16 3896.74 1328.82 3905.4L1328.83 3905.45L1328.83 3905.46C1336.95 3947.79 1353.38 4033.5 1365 4033.5C1371.82 4033.5 1387.9 4061.87 1404.4 4090.97C1421.75 4121.59 1439.55 4153 1447.5 4153C1454.45 4153 1459.69 4172.28 1465.47 4193.56C1472.59 4219.77 1480.53 4249 1493.5 4249C1506.76 4249 1527.19 4281.01 1544.99 4308.9C1558.73 4330.43 1570.9 4349.5 1577 4349.5C1591 4349.5 1646.5 4377.5 1646.5 4399C1646.5 4416.2 1687.83 4406.17 1708.5 4399Z" fill="#89CB79"/>
<path fill-rule="evenodd" clip-rule="evenodd" d="M37.4375 5271.94C26.7619 5278.73 17.1315 5284.87 12 5290V5108L0 0.5H6985.5V2783C6963.17 2804 6913.4 2842.3 6893 2827.5C6878.13 2816.71 6837.39 2816.64 6797.1 2816.56C6768.31 2816.51 6739.75 2816.46 6721 2812.5C6685 2804.9 6461.67 2901.67 6354.5 2951C6287.33 3006 6141.2 3117.1 6094 3121.5C6050.25 3125.58 6007.87 3166.23 5980.94 3192.06C5971.55 3201.07 5964.04 3208.27 5959 3211.5C5952.32 3215.78 5935.45 3229.2 5913.62 3246.57C5871.68 3279.93 5811.43 3327.85 5770 3353.5C5707 3392.5 5677.5 3500.5 5676.5 3516C5675.5 3531.5 5591.5 3609.5 5575.5 3616C5566.65 3619.59 5561.17 3615.85 5553.98 3610.94C5548.16 3606.97 5541.23 3602.24 5530.5 3600C5510.6 3595.85 5491.74 3613.02 5480.46 3623.28L5480.45 3623.28C5478.86 3624.73 5477.42 3626.04 5476.15 3627.13C5475.56 3627.64 5475.01 3628.1 5474.5 3628.5C5469.48 3632.46 5473.67 3638.1 5478.89 3645.12C5483.55 3651.38 5489.03 3658.75 5489.5 3667C5490.3 3681 5469.5 3672.83 5459 3667C5449.17 3656.5 5414.4 3639.9 5354 3657.5C5293.6 3675.1 5194.75 3710.13 5107.5 3770C5081.87 3787.59 5062.7 3807.77 5044.6 3826.82C5023.2 3849.34 5003.3 3870.28 4976 3883.5C4951.12 3895.54 4926.09 3927.55 4898.38 3962.98C4855.91 4017.27 4807.14 4079.61 4743 4090.5C4706.85 4096.64 4669.6 4105.16 4632.15 4113.73C4559.79 4130.28 4486.71 4147 4419.5 4147C4336.68 4147 4307.59 4184.91 4287 4211.75C4282.23 4217.96 4277.92 4223.58 4273.5 4228C4250 4251.5 4144.5 4330.5 4135 4334C4125.5 4337.5 4060.25 4389.28 4024 4435.5C3981.41 4489.8 3954.87 4574.23 3941.17 4617.8C3937.26 4630.27 3934.39 4639.39 3932.5 4643.5C3928.05 4653.18 3927.03 4675.99 3926.06 4697.56C3925.17 4717.21 3924.34 4735.82 3921 4742.5C3914 4756.5 3734.5 5256 3725 5307.5C3719.51 5337.26 3702.41 5327.34 3684.84 5317.14C3678.09 5313.22 3671.26 5309.26 3665 5307.5C3651.58 5303.72 3645.36 5295.3 3638.9 5286.54C3631.18 5276.08 3623.11 5265.13 3602 5261C3563.2 5253.4 3516.5 5273.83 3498 5285C3467.33 5307.5 3403.9 5350.8 3395.5 5344C3388.69 5338.49 3395.13 5320.79 3402.13 5301.52C3405.93 5291.07 3409.89 5280.17 3412 5270.5C3415.84 5252.89 3413.12 5248.81 3410.14 5244.35C3408.47 5241.84 3406.72 5239.21 3406 5234C3404.68 5224.4 3414.1 5202.07 3420.61 5186.64C3423.93 5178.77 3426.5 5172.69 3426.5 5171C3426.5 5166 3449 5148.5 3465.5 5136C3472.61 5130.61 3472 5119.3 3474 5107.5C3475.71 5097.4 3479.97 5087.17 3485.5 5077.5C3500.79 5050.77 3531.6 5020.5 3540 5020.5C3542.86 5020.5 3654.41 4717.83 3659 4718L3663.37 4685.82L3670.5 4683C3670.5 4683 3684.5 4683 3684.5 4683C3696.76 4683.46 3692.89 4686.94 3709 4685.5C3759.97 4680.96 3797.09 4658.86 3833.55 4637.15C3853.36 4625.36 3872.97 4613.68 3894.5 4605C3905 4601.5 3925 4587.1 3921 4557.5C3918.45 4538.63 3906.69 4546.27 3893.36 4554.92C3885.78 4559.85 3877.69 4565.1 3870.5 4566C3864.63 4566.74 3858.56 4568.54 3852.76 4570.26C3840.89 4573.79 3830.14 4576.99 3824.5 4570C3818.07 4562.04 3837.9 4544.88 3859.06 4526.58L3859.07 4526.57C3872.45 4514.99 3886.36 4502.96 3894.5 4492.5C3897.83 4488.22 3901.48 4484.04 3905.08 4479.93C3919.62 4463.29 3933.24 4447.7 3921 4430.5C3909.82 4414.79 3897.9 4408.6 3873.5 4417C3843 4427.5 3714 4519.5 3714 4519.5C3714 4519.5 3665.27 4555.13 3630 4570C3621.35 4573.65 3612.58 4578.24 3603.96 4582.76C3578.62 4596.06 3437.04 4776.68 3421 4762.5C3403.64 4747.16 3356.77 4551.4 3340 4488C3337.55 4478.74 3333.11 4463.58 3329.25 4450.38C3326.81 4442.05 3324.6 4434.5 3323.26 4429.7C3325.37 4427.02 3474.29 4376.35 3480.47 4375.78H3480.48C3487 4375.19 3494.64 4374.49 3501 4371C3508.67 4366.79 3540.33 4343.25 3572.19 4319.56C3584.5 4310.4 3595.54 4305.06 3605.4 4300.29C3621.58 4292.46 3634.61 4286.15 3645 4267C3656.54 4245.72 3656.21 4226.15 3655.86 4205.78C3655.82 4203.38 3655.78 4200.97 3655.75 4198.55V4198.54C3655.69 4191.07 3655.63 4185.33 3656 4183C3657.5 4173.5 3653.5 4082.5 3620.5 4051C3595.12 4026.78 3614.39 3978.01 3626.47 3947.45C3630.1 3938.27 3633.08 3930.74 3634 3926C3638 3905.5 3613.5 3823 3583 3823C3564.25 3823 3559.86 3781.98 3556.01 3745.97C3553.59 3723.41 3551.39 3702.82 3546 3695.5C3532 3676.5 3612 3600.5 3620.5 3604.5C3629 3608.5 3683.5 3547 3675.5 3518C3668.9 3494.06 3672.17 3476.93 3674.36 3465.5C3674.82 3463.08 3675.24 3460.92 3675.5 3459C3676.06 3454.91 3690.03 3445.15 3707 3433.29L3707 3433.29C3735.67 3413.27 3772.9 3387.26 3768.5 3372.5C3761.5 3349 3856.5 3352 3866 3356C3869.37 3357.42 3876.09 3361.3 3883.72 3365.71C3897.6 3373.72 3914.52 3383.5 3920 3383.5C3922.34 3383.5 3930.44 3381.64 3940.95 3379.23L3940.95 3379.23C3968.62 3372.89 3984.74 3372.57 4013 3372.5C4032.27 3372.45 4048.66 3375.51 4064.29 3378.43L4064.29 3378.43C4078.78 3381.13 4092.61 3383.71 4107.45 3383.57L4107.55 3383.57C4111.46 3383.53 4114.85 3383.5 4117.5 3383.5C4130.16 3383.5 4131.21 3370.3 4132.3 3356.63C4133.23 3344.93 4134.2 3332.88 4142.5 3328.5C4149.57 3324.77 4163.97 3309.78 4181.18 3291.85L4181.18 3291.85C4207.79 3264.14 4241.12 3229.43 4264.5 3218.5C4286.56 3208.19 4312.22 3184.58 4333.23 3165.27C4348.89 3150.87 4361.95 3138.85 4369 3136.5C4385.5 3131 4389.5 3052.5 4389.5 3037.5C4389.5 3030.58 4385.14 3022.39 4380.45 3013.56C4374.96 3003.24 4369 2992.05 4369 2981C4369 2971.35 4374.42 2951.08 4379.75 2931.17L4379.75 2931.17C4385.75 2908.76 4391.62 2886.82 4389.5 2881C4385.5 2870 4424 2843.5 4458 2843.5C4482.36 2843.5 4471.81 2821.68 4463.87 2805.26C4460.73 2798.77 4458 2793.12 4458 2790C4458 2785.53 4443.31 2778.18 4425.87 2769.44C4400.38 2756.67 4369 2740.95 4369 2727C4369 2713.41 4353.79 2694.81 4340.95 2679.11C4331.59 2667.67 4323.5 2657.77 4323.5 2652.5V2488C4323.5 2467.5 4273 2374 4255 2374C4245.22 2374 4246.07 2339.03 4246.88 2305.57C4247.56 2277.42 4248.21 2250.34 4242.5 2246C4231.79 2237.86 4233.56 2176.16 4234.29 2150.77C4234.41 2146.52 4234.5 2143.29 4234.5 2141.5C4234.5 2136.03 4230.01 2118.61 4225.16 2099.82L4225.15 2099.81C4222.15 2088.17 4220.78 2079.62 4219.47 2071.45L4219.47 2071.44C4218.06 2062.64 4216.73 2054.29 4213.5 2043C4213.08 2041.52 4212.69 2040.13 4212.32 2038.8C4212.05 2037.86 4211.8 2036.95 4211.56 2036.06L4211.56 2036.06C4208.92 2026.53 4207.09 2019.9 4201.77 2008.35L4201.76 2008.35C4196.65 1997.27 4191.6 1986.31 4190.5 1979.5C4189.3 1972.07 4179.48 1965.44 4168.64 1958.13C4156.88 1950.19 4143.92 1941.45 4139.5 1930C4131 1908 4082 1882 4075 1880.5C4050.5 1844.17 4000.8 1766.4 3998 1746C3996.64 1736.08 3998.53 1719.71 4000.5 1702.72L4000.5 1702.72C4003.59 1676.05 4006.86 1647.83 3998 1640.5C3996.71 1639.43 3994.84 1637.91 3992.51 1636.01L3992.51 1636.01C3968.69 1616.6 3896.59 1557.85 3897.5 1541C3897.91 1533.32 3908.66 1519.19 3920.48 1503.64C3937.15 1481.71 3955.97 1456.96 3951 1443.5C3947.62 1434.34 3944.23 1415.83 3940.69 1396.45C3935.33 1367.17 3929.62 1335.91 3923 1332C3912 1325.5 3878 1262.5 3914.5 1226C3931.17 1209.33 3958.79 1207.78 3984.32 1206.35C4014.67 1204.65 4042.06 1203.12 4044.5 1176.5C4046.38 1156 4060.95 1121.25 4075.65 1086.17L4075.65 1086.17C4096.1 1037.39 4116.8 988.006 4104 975.5C4091.66 963.439 4109.53 914.405 4124.59 873.055C4136.39 840.692 4146.46 813.037 4139 811.5C4130.78 809.808 4135.07 785.331 4139.48 760.099C4144.2 733.135 4149.07 705.308 4139 703.5C4129.67 701.826 4116.8 660.008 4103.39 616.445C4088.77 568.923 4073.5 519.326 4061.5 517.5C4055.92 516.651 4039.23 510.382 4017.37 502.168C3949.15 476.538 3830.52 431.97 3841.5 474C3856 529.5 3880.5 559 3892.5 565C3904.5 571 3991 648 3997 683C3999.73 698.912 4012.79 719.164 4024.86 737.883C4039.35 760.34 4052.41 780.592 4044.5 788.5C4030 803 3970.5 834.5 3954.5 831C3938.5 827.5 3856 816.5 3870.5 853C3877.08 869.568 3874.29 896.334 3871.75 920.627C3868.7 949.853 3866.03 975.5 3880.5 975.5C3893.43 975.5 3901.13 993.243 3908.75 1010.83C3916.75 1029.28 3924.68 1047.56 3938.5 1045C3946.08 1043.6 3956.79 1040.02 3968.31 1036.17C3997.81 1026.32 4032.7 1014.66 4034.5 1033C4037 1058.5 4042 1126.5 4011.5 1141C3981 1155.5 3904.5 1187 3892.5 1187C3889.85 1187 3883.69 1189.24 3875.45 1192.24C3846.37 1202.83 3791.42 1222.84 3773.5 1187C3768.17 1176.33 3761.51 1164.7 3754.58 1152.57C3731.62 1112.39 3705.55 1066.8 3714 1033C3722.8 997.8 3690 917.667 3672.5 882C3660.5 842.833 3637.9 763.5 3643.5 759.5C3650.5 754.5 3726 679.5 3689.5 677C3679.11 676.289 3663.87 673.795 3646.18 670.903C3601.72 663.633 3541.84 653.842 3505 663.5C3453.5 677 3284.5 630.5 3283.5 607.5C3283.04 596.818 3267.8 567.262 3251.6 535.862L3251.6 535.858L3251.6 535.855C3232.93 499.649 3213 460.995 3213 446C3213 418 3109.5 412 3108.5 429C3108.19 434.208 3118.68 445.002 3131.98 458.691C3162.1 489.684 3206.64 535.521 3173 565C3124.5 607.5 3070.5 663.5 3108.5 663.5C3146.5 663.5 3337 666 3351.5 683C3366 700 3390.5 730.5 3390.5 759.5C3390.5 764.702 3389.9 770.532 3389.27 776.793C3386.34 805.434 3382.49 843.099 3430.5 871C3455.33 885.432 3482.14 898.963 3505.05 910.522C3536.11 926.196 3559.99 938.245 3562 944C3563.47 948.199 3583.19 972.06 3605.57 999.144L3605.58 999.146C3636.5 1036.56 3672.5 1080.12 3672.5 1086.5C3672.5 1091.49 3686.78 1117.33 3702.39 1145.58L3702.4 1145.59C3721.23 1179.66 3742 1217.25 3742 1226C3742 1242 3769.5 1255 3808.5 1268.5C3847.5 1282 3884 1341.5 3870.5 1392.5C3863.2 1420.07 3845.67 1442.24 3831.11 1460.65C3818.74 1476.3 3808.5 1489.24 3808.5 1500.5C3808.5 1514.56 3822.17 1534.88 3833.82 1552.2C3842.47 1565.05 3850 1576.25 3850 1582C3850 1588.95 3869.34 1601.06 3888.11 1612.82L3888.11 1612.82C3905.81 1623.91 3923 1634.68 3923 1640.5C3923 1652.5 3894.5 1663.5 3882.5 1661C3870.5 1658.5 3880.5 1689.5 3897.5 1710C3914.5 1730.5 3969 1810 3980 1831.5C3988.8 1848.7 4014 1881.67 4025.5 1896C4017.93 1896 4017.51 1922.21 4017.14 1945.56C4017.03 1952.05 4016.11 1956.81 4015.27 1961.14C4014.15 1966.95 4013.17 1972 4014.5 1979.5C4021.37 2018.12 4069.5 2038.5 4099.5 2033C4123.5 2028.6 4156.5 2074.5 4170 2098C4160.33 2125.83 4142.4 2182.1 4148 2184.5C4155 2187.5 4170 2254.5 4170 2271C4170 2279.81 4173.14 2305.04 4176.06 2328.53L4176.06 2328.54L4176.07 2328.56L4176.07 2328.59C4178.62 2349.05 4181 2368.18 4181 2374C4181 2386.5 4227.5 2470 4242.5 2479.5C4256.21 2488.18 4255.3 2552.41 4255.04 2570.65C4255.02 2572.37 4255 2573.68 4255 2574.5C4255 2578.32 4252.98 2597.91 4250.56 2621.33C4246.97 2656.15 4242.5 2699.44 4242.5 2712C4242.5 2725.08 4256.85 2731.95 4270.09 2738.29C4278.11 2742.14 4285.73 2745.78 4289.5 2750.5C4299.5 2763 4323.5 2832.5 4323.5 2853.5C4323.5 2874.5 4267.5 2915 4255 2915C4249.12 2915 4240.59 2922.96 4228.2 2934.52C4214.26 2947.54 4195.42 2965.11 4170 2981C4123.69 3009.94 4076.91 2962.56 4066.49 2952C4066.11 2951.62 4065.78 2951.28 4065.5 2951C4060.56 2946.06 4042.31 2950.26 4025.17 2954.2C4014.53 2956.65 4004.32 2959 3998 2959C3981.5 2959 3961 2941 3940.5 2915C3926.88 2897.72 3934.23 2887.07 3944.8 2871.75C3950.14 2864.01 3956.3 2855.08 3961 2843.5C3971.21 2818.34 3966.53 2793.44 3963.24 2775.99C3962.73 2773.28 3962.6 2771.09 3962.48 2769.02C3962.3 2766.14 3962.14 2763.49 3961 2760C3953.39 2736.79 3926.04 2742.11 3901.26 2746.94C3893.13 2748.52 3885.29 2750.05 3878.5 2750.5C3860.17 2753.67 3822.1 2760 3816.5 2760C3810.9 2760 3785.17 2745.33 3773 2738C3769.45 2731.61 3766.77 2724.49 3763.95 2716.99C3759.49 2705.12 3754.68 2692.32 3745.5 2680C3728.87 2657.68 3696 2633.5 3691.5 2633.5C3687 2633.5 3646.5 2574.5 3648 2565C3649.2 2557.4 3624.5 2524.17 3612 2508.5C3599.5 2492.83 3620.5 2633.5 3620.5 2633.5C3617.67 2653.17 3609.3 2696.4 3598.5 2712C3589.76 2724.62 3614.73 2736.4 3635.34 2746.12L3635.34 2746.12L3635.35 2746.12L3635.35 2746.13C3646.59 2751.43 3656.53 2756.12 3659 2760C3661.87 2764.51 3669.96 2771.04 3678.88 2778.25C3691.7 2788.61 3706.26 2800.36 3709.5 2809.5C3715 2825 3779.5 2861.5 3790.5 2864.5C3801.5 2867.5 3878.5 2967.5 3878.5 2981C3878.5 2994.5 3952.5 3008.5 3961 3008.5C3964.98 3008.5 3977.26 3022.61 3990.34 3037.63L3990.35 3037.64L3990.35 3037.64C4005.24 3054.73 4021.15 3073 4027 3073C4038 3073 4045 3180 4046 3206.5C4047 3233 3944.5 3295.5 3933.5 3295.5C3930.56 3295.5 3923.21 3292.76 3913.27 3289.06L3913.27 3289.05C3893.45 3281.67 3863.35 3270.45 3837.5 3269.5C3818.17 3268.79 3796.52 3275.27 3778.83 3280.56C3763.15 3285.25 3750.58 3289.01 3745.5 3286C3732 3278 3635.5 3317.5 3620.5 3338C3611.77 3349.93 3597.45 3359.16 3581.24 3369.61L3581.23 3369.61C3577.01 3372.34 3572.66 3375.14 3568.24 3378.09C3566.99 3378.93 3565.46 3379.88 3564.06 3380.74C3561.87 3382.1 3560 3383.26 3560 3383.5C3560 3385 3542 3462 3520 3459C3509.46 3457.56 3502.41 3479.58 3494.15 3505.4L3494.15 3505.41C3488.62 3522.7 3482.54 3541.69 3474.5 3556.5C3462.89 3577.88 3446.27 3601.77 3432.68 3621.32L3432.68 3621.32C3419.65 3640.06 3409.39 3654.8 3409 3659.5C3408.84 3661.39 3408.62 3664.42 3408.35 3668.2L3408.34 3668.39L3408.33 3668.47C3407.8 3675.76 3406.01 3683.08 3404.15 3690.64L3404.15 3690.65C3400.82 3704.18 3397.3 3718.53 3400.5 3735C3403.67 3751.33 3409 3759.54 3416.77 3771.5C3419.82 3776.19 3423.24 3781.46 3427.05 3788.01L3427.05 3788.02L3427.05 3788.02C3435.67 3800.95 3444.78 3818.52 3446 3823C3447.88 3829.88 3476.38 3848.71 3499.77 3864.16L3499.78 3864.16L3499.78 3864.17C3504.13 3867.04 3507.66 3869.18 3510.77 3871.06C3517.68 3875.25 3522.51 3878.17 3529.5 3885C3561 3915.74 3562.5 3963 3560 3993.5C3558 4017.9 3581.17 4088.67 3593 4121C3593.83 4131.26 3595.87 4142.16 3598 4153.48C3603.94 4185.2 3610.52 4220.31 3593 4254.5C3571.02 4297.39 3526.33 4308.19 3484.91 4318.19C3468.17 4322.23 3308.22 4376.35 3294.26 4382.2C3284.26 4377.4 3230.43 4394.2 3204.76 4403.2C3131.76 4419.53 3120.2 4402.4 3083 4404C3047.23 4405.54 3010.57 4395.54 2984.17 4388.34C2976.26 4386.18 2969.27 4384.27 2963.5 4383C2943.5 4378.6 2874.5 4417.17 2842.5 4437C2827.5 4441.83 2792.9 4452.3 2774.5 4455.5C2763.44 4457.42 2760.93 4450.92 2758.22 4443.89C2756.42 4439.22 2754.54 4434.32 2750 4431.5C2732.99 4420.92 2717.6 4417.6 2700 4420C2687.32 4421.73 2684.94 4434.43 2682.23 4448.9C2680.23 4459.52 2678.06 4471.11 2671.5 4480C2660.68 4494.66 2647.67 4495.92 2630.76 4497.55C2623.45 4498.26 2615.41 4499.04 2606.5 4501C2582.9 4506.2 2532.33 4489.17 2510 4480C2498.83 4470.5 2443.8 4517 2441 4501C2438.2 4485 2333.67 4497.27 2314.5 4491.44C2276.83 4476.6 2189.1 4429.54 2139.5 4359.94C2091.96 4293.23 2074.2 4211.79 2052 4205.78C2045.25 4203.95 2105.02 4171 2103.5 4171C2052 4171 2053.66 4148.26 2026.83 4138.81L2026.79 4138.8L2026.79 4138.79C2019.97 4136.39 2014.64 4134.51 2012 4133.5C2001.6 4129.5 1924.65 4146.86 1874.5 4171C1853.65 4181.04 1834.12 4197.71 1817.28 4212.1C1805.18 4203.13 1781 4180.56 1781 4162C1781 4138.79 1776.5 4101 1770 4101C1766.97 4101 1763.5 4086.31 1759.8 4070.64C1755.57 4052.71 1751.03 4033.5 1746.5 4033.5C1745.92 4033.5 1745.01 4033.52 1743.82 4033.55C1743.09 4033.57 1742.25 4033.59 1741.32 4033.62C1721.61 4034.15 1659.5 4035.84 1659.5 4022.5C1659.5 4007.5 1663 3949 1670.5 3941.5C1678 3934 1659 3835.5 1646.5 3836.5C1640.47 3836.98 1628.26 3829.08 1615.95 3821.11C1602.76 3812.57 1589.45 3803.95 1583.5 3805.5C1577.15 3807.16 1556.6 3792.94 1538.22 3780.23C1523.33 3769.92 1509.86 3760.6 1506.5 3761.5C1499 3763.5 1496.5 3684.5 1517 3671.5C1519.37 3669.99 1522.23 3668.21 1525.41 3666.21L1525.42 3666.21L1525.42 3666.2C1549.73 3650.96 1593.5 3623.51 1593.5 3616C1593.5 3613.72 1598.2 3607.18 1604.54 3598.34C1621.88 3574.19 1651.5 3532.94 1631 3515C1615.76 3501.66 1615.18 3516.77 1614.52 3534.28C1613.96 3548.93 1613.34 3565.27 1604 3568C1583.5 3574 1522.5 3552.5 1522.5 3542C1522.5 3531.5 1508.5 3473 1485 3468C1461.5 3463 1429.5 3388.5 1443.5 3377C1448.95 3372.52 1466.07 3369.64 1484.94 3366.46C1514.56 3361.46 1548.5 3355.74 1548.5 3342C1548.5 3335.11 1549.34 3325.17 1550.26 3314.43C1552.32 3290.08 1554.74 3261.59 1548.5 3255L1547.89 3254.35C1537.77 3243.68 1498.14 3201.87 1504.5 3196C1506.15 3194.48 1509.59 3188.56 1514.21 3180.62L1514.22 3180.6L1514.22 3180.6C1527.83 3157.22 1551.59 3116.39 1569.5 3119C1593.5 3122.5 1631 3114.5 1631 3098C1631 3090.02 1643.5 3098.64 1658.12 3108.71C1673.73 3119.47 1691.75 3131.89 1699.5 3127.5C1704.55 3124.64 1714.3 3122.91 1724.99 3121.02C1746.03 3117.29 1770.66 3112.92 1770 3098C1769 3075.5 1740.5 2983 1699.5 2997C1658.5 3011 1560 3006 1560 2984C1560 2975.72 1554.69 2968.71 1548.46 2960.5C1538.15 2946.9 1525.32 2929.99 1530 2898.5C1533.44 2875.31 1542.48 2850.96 1550.12 2830.34C1559.13 2806.06 1566.22 2786.95 1560 2781C1557.36 2778.47 1550.13 2769.43 1540.22 2757.04L1540.21 2757.04L1540.21 2757.03C1506.97 2715.46 1443.57 2636.19 1422 2638.5C1394 2641.5 1256.5 2521 1259.5 2504C1260.54 2498.09 1259.17 2484.88 1257.52 2469.02C1254.43 2439.24 1250.36 2400.12 1259.5 2382.5C1263.3 2375.17 1269.53 2365.9 1276.25 2355.88C1294.3 2329.01 1315.89 2296.84 1303.5 2283C1299.46 2278.49 1291.67 2272.93 1282.44 2266.35C1252.86 2245.25 1208.58 2213.67 1226.5 2172.5C1240.03 2141.42 1275.58 2120.94 1303.33 2104.96L1303.33 2104.96C1323.79 2093.17 1340 2083.84 1340 2074.5C1340 2068.5 1342.71 2057.46 1345.92 2044.39C1354.47 2009.53 1366.55 1960.32 1340 1954.5C1303.5 1946.5 1226.5 1912 1250 1864.5C1265.34 1833.5 1298.99 1805.91 1320.51 1788.26L1320.51 1788.26C1331.97 1778.86 1340 1772.28 1340 1769.5C1340 1767.06 1347.47 1760.36 1356.39 1752.35C1376.75 1734.07 1404.66 1709.02 1368.5 1712.5C1345.07 1714.75 1327.32 1725.94 1311.88 1735.68C1293.04 1747.55 1277.63 1757.26 1259.5 1746C1242.89 1735.68 1230.84 1706.23 1220.8 1681.69C1210.89 1657.48 1202.94 1638.06 1194.5 1646.5C1189.81 1651.19 1185.99 1656.38 1182.37 1661.31C1172.86 1674.23 1164.68 1685.34 1145.5 1681C1140.89 1679.96 1135.62 1679.05 1129.89 1678.06L1129.88 1678.06L1129.88 1678.06L1129.88 1678.06C1102.62 1673.37 1064.93 1666.89 1038.5 1635.5C1006.5 1597.5 960.5 1510 967 1483.5C973.5 1457 916.5 1414.5 904 1438C891.5 1461.5 833.5 1352.5 850.5 1341.5C852.123 1340.45 854.599 1338.9 857.741 1336.93C887.496 1318.28 976.95 1262.21 967 1240.5C963.709 1233.32 956.479 1222.87 948.47 1211.3C929.712 1184.19 906.685 1150.91 920 1139C939 1122 967 1084 967 1046C967 1022.35 948.8 992.51 935.051 969.966C926.705 956.283 920 945.288 920 940C920 935.299 908.217 924.002 893.227 909.63C863.576 881.201 821.376 840.74 833 815.5C842.556 794.75 878.499 774.597 913.233 755.122C942.11 738.93 970.151 723.208 981.5 708C992.1 693.796 1012.41 676.267 1032.28 659.109C1059.29 635.798 1085.5 613.172 1085.5 600.5C1085.5 578.5 1105 473.5 1120.5 456.5C1129.87 446.228 1132.48 402.363 1134.84 362.635C1136.39 336.617 1137.83 312.372 1141 300.5C1142.64 294.335 1145.96 285.467 1149.85 275.038L1149.85 275.035C1164.91 234.713 1188.69 171.054 1158.5 150C1120.5 123.5 1092.5 109.5 1048 112.5C1003.5 115.5 962.5 125.5 981.5 171C988.732 188.319 992.27 206.072 995.366 221.613C1000.41 246.902 1004.28 266.332 1021 268.5C1048 272 1059.5 419.5 1048 438C1043.45 445.325 1044.46 464.879 1045.57 486.42C1047.27 519.28 1049.22 556.762 1032 562.5C1003.5 572 936.5 552.5 908.5 535.5C880.5 518.5 897 444 908.5 415.5C920 387 861 357 847 376C833 395 790.5 434.5 765 425C757.377 422.16 744.838 415.656 731.005 408.48C698.564 391.651 659 371.128 659 385.5C659 388.09 658.92 391.158 658.832 394.542C658.224 417.952 657.221 456.5 679.5 456.5C705 456.5 764.5 549.5 779 575C793.5 600.5 793 733 779 760C765 787 739 815.5 720.5 815.5C702 815.5 659 929 659 956C659 967.711 645.925 985.63 631.893 1004.86C613.573 1029.97 593.62 1057.31 599 1076C602.791 1089.17 597.743 1110.7 592.627 1132.52C584.924 1165.38 577.067 1198.89 599 1205.5C603.465 1206.85 608.461 1208.31 613.815 1209.88L613.816 1209.88L613.819 1209.88C652.235 1221.15 709.091 1237.82 720.5 1254.5C726.735 1263.61 745.964 1269.73 764.29 1275.57C784.177 1281.9 803 1287.89 803 1297C803 1303.31 796.758 1313.59 789.901 1324.88C777.744 1344.89 763.655 1368.09 779 1378C789.261 1384.63 810.491 1426.54 834.013 1472.97C865.506 1535.14 901.109 1605.42 920 1610C953 1618 989 1646 994 1671.5C994.946 1676.32 995.498 1681.72 996.08 1687.41C998.573 1711.77 1001.61 1741.43 1038.5 1754C1059.97 1761.31 1071.64 1770.74 1079.82 1777.35C1088.98 1784.74 1093.76 1788.6 1103 1782C1120.5 1769.5 1177 1779 1174 1817C1173.45 1823.98 1173.32 1832.22 1173.18 1841.03C1172.57 1880.18 1171.78 1930.5 1133 1930.5C1112.54 1930.5 1079.46 1907.96 1046.44 1885.45C1002.79 1855.7 959.231 1826.01 945 1848.5C922.386 1884.23 952.14 1922.83 970.977 1947.26C972.964 1949.84 974.83 1952.26 976.5 1954.5C983.142 1963.42 998.21 1976.08 1014.35 1989.65C1040.74 2011.83 1070 2036.42 1070 2051C1070 2060.21 1082.06 2066.58 1097.11 2074.53C1120.47 2086.87 1151.05 2103.02 1155 2139.5C1156.81 2156.16 1157.03 2175.02 1157.26 2194.22V2194.22C1157.85 2244.15 1158.47 2296.33 1187 2318C1226.5 2348 1188 2430 1145.5 2458.5C1111.5 2481.3 1123 2527 1133 2547C1152.67 2573.33 1193.2 2628.5 1198 2638.5C1199.25 2641.11 1203.14 2647.45 1208.42 2655.99L1209.47 2657.7L1209.49 2657.73L1209.49 2657.73L1209.5 2657.74L1209.5 2657.75C1229.8 2690.62 1268.05 2752.57 1259.5 2765C1248.5 2781 1293 2859.5 1316.5 2858C1340 2856.5 1422 2878 1422 2911C1422 2924.6 1431.09 2933.62 1442.45 2944.88C1458.63 2960.93 1479.42 2981.54 1485 3026.5C1494.5 3103 1471 3217 1374.5 3196C1320.7 3184.29 1299.69 3143.99 1283.92 3113.73C1271.41 3089.72 1262.19 3072.04 1242.5 3080C1226.63 3086.42 1202.36 3088.51 1178 3090.62C1134.06 3094.41 1089.82 3098.23 1094 3127.5C1100.5 3173 1143 3268 1170.5 3268C1186.32 3268 1232.41 3322.43 1272.62 3369.91C1302.31 3404.97 1328.79 3436.24 1337.5 3439C1341.41 3440.24 1347.68 3441.7 1355.18 3443.45C1386.98 3450.86 1440.99 3463.44 1432.5 3486.5C1429.36 3495.01 1432.47 3509.99 1435.96 3526.82C1444.16 3566.32 1454.47 3616 1391 3616C1300.5 3616 1170.5 3579 1170.5 3568C1170.5 3562.69 1144.02 3553.41 1116.18 3543.65C1086.4 3533.22 1055.07 3522.24 1053 3515C1049 3501 945.5 3431 945.5 3486.5C945.5 3542 954 3605 987 3616C1001.84 3620.95 1026.68 3632.66 1050.85 3644.07L1050.86 3644.07C1080.44 3658.02 1109.02 3671.5 1117 3671.5C1122.68 3671.5 1131.04 3692.05 1141.21 3717.05C1157.02 3755.9 1177.21 3805.5 1198.5 3805.5C1233.5 3805.5 1320 3863 1325 3886C1325.85 3889.91 1327.16 3896.74 1328.82 3905.4L1328.83 3905.45L1328.83 3905.46C1336.95 3947.79 1353.38 4033.5 1365 4033.5C1371.82 4033.5 1387.9 4061.87 1404.4 4090.97C1421.75 4121.59 1439.55 4153 1447.5 4153C1454.45 4153 1459.69 4172.28 1465.47 4193.56C1472.59 4219.77 1480.53 4249 1493.5 4249C1506.76 4249 1527.19 4281.01 1544.99 4308.9C1558.73 4330.43 1570.9 4349.5 1577 4349.5C1591 4349.5 1646.5 4377.5 1646.5 4399C1646.5 4416.2 1687.83 4406.17 1708.5 4399C1697.31 4409.14 1701.78 4421 1705.47 4430.81C1707.06 4435.01 1708.5 4438.85 1708.5 4442C1708.5 4450.4 1685.5 4463.17 1674 4468.5C1669.04 4476.06 1661.52 4483.36 1653.19 4491.44L1653.19 4491.44L1653.17 4491.46C1644.98 4499.4 1636.03 4508.09 1628 4518.5C1623.79 4523.96 1622.1 4529.05 1620.48 4533.94C1617.77 4542.09 1615.26 4549.68 1601.5 4557.5C1586.32 4566.13 1578.28 4557.85 1568.19 4547.45C1563.65 4542.78 1558.7 4537.68 1552.5 4533.5C1536.5 4522.7 1506.5 4545 1493.5 4557.5C1485.68 4566.42 1478.94 4577.26 1471.7 4588.94C1462.42 4603.87 1452.31 4620.16 1438 4635.5C1403.13 4672.89 1365.97 4693.1 1329.96 4712.68C1322.75 4716.6 1315.59 4720.5 1308.5 4724.5C1296.79 4733.23 1287.09 4745.54 1277 4758.34C1259.95 4779.97 1241.8 4803 1211 4812.5C1189.41 4819.16 1171.67 4822.67 1153.5 4819C1137.33 4813.33 1098.5 4805.4 1072.5 4819C1052.03 4829.71 1053.46 4834.88 1054.78 4839.6C1055.55 4842.38 1056.28 4845 1052.5 4848.5C1027.8 4871.38 969.5 4887 967.5 4863C965.5 4839 901.5 4833.5 892 4833.5C890.011 4833.5 884.983 4832.07 877.964 4830.07C858.166 4824.42 822.522 4814.27 794.5 4819C785.1 4820.59 778.268 4823.46 771.343 4826.36C764.992 4829.03 758.562 4831.73 750 4833.5C725.501 4838.58 701.557 4833.78 680.226 4829.51C663.341 4826.12 648.092 4823.07 635.5 4825.5C616.521 4829.16 590.225 4865.64 571.673 4891.38C562.366 4904.29 555.008 4914.5 551.5 4916.5C543.163 4921.26 548.002 4969.87 551.422 5004.22L551.5 5005C552.077 5010.79 552.497 5017.14 552.919 5023.5C554.261 5043.76 555.607 5064.06 562 5066.5C572.5 5070.5 562 5096 551.5 5107.5C545.503 5114.07 536.9 5111.98 527.269 5109.64C520.036 5107.88 512.224 5105.98 504.5 5107.5C495.111 5109.35 487.334 5113.04 480.154 5116.45L480.15 5116.45L480.147 5116.46L480.143 5116.46C475.084 5118.86 470.321 5121.12 465.5 5122.5C463.197 5120.39 461.521 5116.83 459.667 5112.88C456.825 5106.83 453.568 5099.9 447 5096C433.89 5088.21 422.559 5091.49 408.068 5095.69L407 5096C392.949 5100.06 384.624 5107.9 375.609 5116.4L375.6 5116.4L375.589 5116.42C375.586 5116.42 375.583 5116.42 375.58 5116.42C373.453 5118.43 371.288 5120.47 369 5122.5C363.5 5129.17 349.3 5141.8 336.5 5139C329.91 5137.56 327.476 5131.96 325.286 5126.92C322.158 5119.73 319.527 5113.68 306 5122.5C284.7 5136.39 292.988 5147.71 303.464 5162.01C304.3 5163.16 305.15 5164.32 306 5165.5C316.746 5180.45 304.79 5194.96 288.491 5214.75C287.346 5216.14 286.181 5217.56 285 5219C270.6 5236.6 246 5244.67 235.5 5246.5C230.247 5247.42 227.803 5241.69 225.017 5235.15C222.233 5228.63 219.108 5221.3 212.5 5219C204.098 5216.08 197.244 5222.74 190.67 5229.13C183.792 5235.81 177.219 5242.2 169.5 5237C160.834 5231.16 160.246 5221.33 159.689 5211.99C159.525 5209.25 159.364 5206.54 159 5204C157.4 5192.8 136.878 5195.02 122.5 5197C105.458 5199.35 98.2222 5211 90.191 5223.94C85.4594 5231.56 80.4517 5239.63 73 5246.5C63.2223 5255.51 49.6463 5264.16 37.4375 5271.94Z" fill="#BBCB79"/>
<path d="M4025.5 1896C4029.7 1896 4035.59 1893.76 4042.19 1891.25C4045.8 1889.87 4049.62 1888.42 4053.49 1887.21C4056.43 1886.29 4059.53 1885.1 4062.46 1883.98C4067.92 1881.9 4072.81 1880.03 4075 1880.5C4050.5 1844.17 4000.8 1766.4 3998 1746C3996.64 1736.08 3998.53 1719.71 4000.5 1702.72L4000.5 1702.72C4003.59 1676.05 4006.86 1647.83 3998 1640.5C3996.71 1639.43 3994.84 1637.91 3992.51 1636.01L3992.51 1636.01C3968.69 1616.6 3896.59 1557.85 3897.5 1541C3897.91 1533.32 3908.66 1519.19 3920.48 1503.64C3937.15 1481.71 3955.97 1456.96 3951 1443.5C3947.62 1434.34 3944.23 1415.83 3940.69 1396.45C3935.33 1367.17 3929.62 1335.91 3923 1332C3912 1325.5 3878 1262.5 3914.5 1226C3931.17 1209.33 3958.79 1207.78 3984.32 1206.35C4014.67 1204.65 4042.06 1203.12 4044.5 1176.5C4046.38 1156 4060.95 1121.25 4075.65 1086.17L4075.65 1086.17C4096.1 1037.39 4116.8 988.006 4104 975.5C4091.66 963.439 4109.53 914.405 4124.59 873.055C4136.39 840.692 4146.46 813.037 4139 811.5C4130.78 809.808 4135.07 785.331 4139.48 760.099C4144.2 733.135 4149.07 705.308 4139 703.5C4129.67 701.826 4116.8 660.008 4103.39 616.445C4088.77 568.923 4073.5 519.326 4061.5 517.5C4055.92 516.651 4039.23 510.382 4017.37 502.168C3949.15 476.538 3830.52 431.97 3841.5 474C3856 529.5 3880.5 559 3892.5 565C3904.5 571 3991 648 3997 683C3999.73 698.912 4012.79 719.164 4024.86 737.883C4039.35 760.34 4052.41 780.592 4044.5 788.5C4030 803 3970.5 834.5 3954.5 831C3938.5 827.5 3856 816.5 3870.5 853C3877.08 869.568 3874.29 896.334 3871.75 920.627C3868.7 949.853 3866.03 975.5 3880.5 975.5C3893.43 975.5 3901.13 993.243 3908.75 1010.83C3916.75 1029.28 3924.68 1047.56 3938.5 1045C3946.08 1043.6 3956.79 1040.02 3968.31 1036.17C3997.81 1026.32 4032.7 1014.66 4034.5 1033C4037 1058.5 4042 1126.5 4011.5 1141C3981 1155.5 3904.5 1187 3892.5 1187C3889.85 1187 3883.69 1189.24 3875.45 1192.24C3846.37 1202.83 3791.42 1222.84 3773.5 1187C3768.17 1176.33 3761.51 1164.7 3754.58 1152.57C3731.62 1112.39 3705.55 1066.8 3714 1033C3722.8 997.8 3690 917.667 3672.5 882C3660.5 842.833 3637.9 763.5 3643.5 759.5C3650.5 754.5 3726 679.5 3689.5 677C3679.11 676.289 3663.87 673.795 3646.18 670.903C3601.72 663.633 3541.84 653.842 3505 663.5C3453.5 677 3284.5 630.5 3283.5 607.5C3283.04 596.818 3267.8 567.262 3251.6 535.862L3251.6 535.858L3251.6 535.855C3232.93 499.649 3213 460.995 3213 446C3213 418 3109.5 412 3108.5 429C3108.19 434.208 3118.68 445.002 3131.98 458.691C3162.1 489.684 3206.64 535.521 3173 565C3124.5 607.5 3070.5 663.5 3108.5 663.5C3146.5 663.5 3337 666 3351.5 683C3366 700 3390.5 730.5 3390.5 759.5C3390.5 764.702 3389.9 770.532 3389.27 776.793C3386.34 805.434 3382.49 843.099 3430.5 871C3455.33 885.432 3482.14 898.963 3505.05 910.522C3536.11 926.196 3559.99 938.245 3562 944C3563.47 948.199 3583.19 972.06 3605.57 999.144L3605.58 999.146C3636.5 1036.56 3672.5 1080.12 3672.5 1086.5C3672.5 1091.49 3686.78 1117.33 3702.39 1145.58L3702.4 1145.59C3721.23 1179.66 3742 1217.25 3742 1226C3742 1242 3769.5 1255 3808.5 1268.5C3847.5 1282 3884 1341.5 3870.5 1392.5C3863.2 1420.07 3845.67 1442.24 3831.11 1460.65C3818.74 1476.3 3808.5 1489.24 3808.5 1500.5C3808.5 1514.56 3822.17 1534.88 3833.82 1552.2C3842.47 1565.05 3850 1576.25 3850 1582C3850 1588.95 3869.34 1601.06 3888.11 1612.82L3888.11 1612.82C3905.81 1623.91 3923 1634.68 3923 1640.5C3923 1652.5 3894.5 1663.5 3882.5 1661C3870.5 1658.5 3880.5 1689.5 3897.5 1710C3914.5 1730.5 3969 1810 3980 1831.5C3988.8 1848.7 4014 1881.67 4025.5 1896Z" fill="#89CB79"/>
<path d="M159 5204C157.4 5192.8 136.878 5195.02 122.5 5197C105.458 5199.35 98.2222 5211 90.191 5223.94C85.4594 5231.56 80.4517 5239.63 73 5246.5C63.2223 5255.51 49.6463 5264.16 37.4375 5271.94C26.7619 5278.73 17.1315 5284.87 12 5290V5378.5H6985.5V2783C6963.17 2804 6913.4 2842.3 6893 2827.5C6878.13 2816.71 6837.39 2816.64 6797.1 2816.56C6768.31 2816.51 6739.75 2816.46 6721 2812.5C6685 2804.9 6461.67 2901.67 6354.5 2951C6287.33 3006 6141.2 3117.1 6094 3121.5C6050.25 3125.58 6007.87 3166.23 5980.94 3192.06C5971.55 3201.07 5964.04 3208.27 5959 3211.5C5952.32 3215.78 5935.45 3229.2 5913.62 3246.57C5871.68 3279.93 5811.43 3327.85 5770 3353.5C5707 3392.5 5677.5 3500.5 5676.5 3516C5675.5 3531.5 5591.5 3609.5 5575.5 3616C5566.65 3619.59 5561.17 3615.85 5553.98 3610.94C5548.16 3606.97 5541.23 3602.24 5530.5 3600C5510.6 3595.85 5491.74 3613.02 5480.46 3623.28L5480.45 3623.28C5478.86 3624.73 5477.42 3626.04 5476.15 3627.13C5475.56 3627.64 5475.01 3628.1 5474.5 3628.5C5469.48 3632.46 5473.67 3638.1 5478.89 3645.12C5483.55 3651.38 5489.03 3658.75 5489.5 3667C5490.3 3681 5469.5 3672.83 5459 3667C5449.17 3656.5 5414.4 3639.9 5354 3657.5C5293.6 3675.1 5194.75 3710.13 5107.5 3770C5081.87 3787.59 5062.7 3807.77 5044.6 3826.82C5023.2 3849.34 5003.3 3870.28 4976 3883.5C4951.12 3895.54 4926.09 3927.55 4898.38 3962.98C4855.91 4017.27 4807.14 4079.61 4743 4090.5C4706.85 4096.64 4669.6 4105.16 4632.15 4113.73C4559.79 4130.28 4486.71 4147 4419.5 4147C4336.68 4147 4307.59 4184.91 4287 4211.75C4282.23 4217.96 4277.92 4223.58 4273.5 4228C4250 4251.5 4144.5 4330.5 4135 4334C4125.5 4337.5 4060.25 4389.28 4024 4435.5C3981.41 4489.8 3954.87 4574.23 3941.17 4617.8C3937.26 4630.27 3934.39 4639.39 3932.5 4643.5C3928.05 4653.18 3927.03 4675.99 3926.06 4697.56C3925.17 4717.21 3924.34 4735.82 3921 4742.5C3914 4756.5 3734.5 5256 3725 5307.5C3719.51 5337.26 3702.41 5327.34 3684.84 5317.14C3678.09 5313.22 3671.26 5309.26 3665 5307.5C3651.58 5303.72 3645.36 5295.3 3638.9 5286.54C3631.18 5276.08 3623.11 5265.13 3602 5261C3563.2 5253.4 3516.5 5273.83 3498 5285C3467.33 5307.5 3403.9 5350.8 3395.5 5344C3388.69 5338.49 3395.13 5320.79 3402.13 5301.52C3405.93 5291.07 3409.89 5280.17 3412 5270.5C3415.84 5252.89 3413.12 5248.81 3410.14 5244.35C3408.47 5241.84 3406.72 5239.21 3406 5234C3404.68 5224.4 3414.1 5202.07 3420.61 5186.64C3423.93 5178.77 3426.5 5172.69 3426.5 5171C3426.5 5166 3449 5148.5 3465.5 5136C3472.61 5130.61 3472 5119.3 3474 5107.5C3475.71 5097.4 3479.97 5087.17 3485.5 5077.5C3500.79 5050.77 3531.6 5020.5 3540 5020.5C3542.86 5020.5 3654.41 4717.83 3659 4718L3663.37 4685.82L3670.5 4683C3670.5 4683 3684.5 4683 3684.5 4683C3696.76 4683.46 3692.89 4686.94 3709 4685.5C3759.97 4680.96 3797.09 4658.86 3833.55 4637.15C3853.36 4625.36 3872.97 4613.68 3894.5 4605C3905 4601.5 3925 4587.1 3921 4557.5C3918.45 4538.63 3906.69 4546.27 3893.36 4554.92C3885.78 4559.85 3877.69 4565.1 3870.5 4566C3864.63 4566.74 3858.56 4568.54 3852.76 4570.26C3840.89 4573.79 3830.14 4576.99 3824.5 4570C3818.07 4562.04 3837.9 4544.88 3859.06 4526.58L3859.07 4526.57C3872.45 4514.99 3886.36 4502.96 3894.5 4492.5C3897.83 4488.22 3901.48 4484.04 3905.08 4479.93C3919.62 4463.29 3933.24 4447.7 3921 4430.5C3909.82 4414.79 3897.9 4408.6 3873.5 4417C3843 4427.5 3714 4519.5 3714 4519.5C3714 4519.5 3665.27 4555.13 3630 4570C3621.35 4573.65 3612.58 4578.24 3603.96 4582.76C3578.62 4596.06 3437.04 4776.68 3421 4762.5C3403.64 4747.16 3356.77 4551.4 3340 4488C3337.55 4478.74 3333.11 4463.58 3329.25 4450.38C3326.81 4442.05 3324.6 4434.5 3323.26 4429.7C3315.93 4410.36 3304.26 4387 3294.26 4382.2C3284.26 4377.4 3230.43 4394.2 3204.76 4403.2C3131.76 4419.53 3120.2 4402.4 3083 4404C3047.23 4405.54 3010.57 4395.54 2984.17 4388.34C2976.26 4386.18 2969.27 4384.27 2963.5 4383C2943.5 4378.6 2874.5 4417.17 2842.5 4437C2827.5 4441.83 2792.9 4452.3 2774.5 4455.5C2763.44 4457.42 2760.93 4450.92 2758.22 4443.89C2756.42 4439.22 2754.54 4434.32 2750 4431.5C2732.99 4420.92 2717.6 4417.6 2700 4420C2687.32 4421.73 2684.94 4434.43 2682.23 4448.9C2680.23 4459.52 2678.06 4471.11 2671.5 4480C2660.68 4494.66 2647.67 4495.92 2630.76 4497.55C2623.45 4498.26 2615.41 4499.04 2606.5 4501C2582.9 4506.2 2532.33 4489.17 2510 4480C2498.83 4470.5 2443.8 4517 2441 4501C2438.2 4485 2333.67 4497.27 2314.5 4491.44C2276.83 4476.6 2189.1 4429.54 2139.5 4359.94C2091.96 4293.23 2074.2 4211.79 2052 4205.78C2045.25 4203.95 2105.02 4171 2103.5 4171C2052 4171 2053.66 4148.26 2026.83 4138.81L2026.79 4138.8L2026.79 4138.79C2019.97 4136.39 2014.64 4134.51 2012 4133.5C2001.6 4129.5 1924.65 4146.86 1874.5 4171C1853.65 4181.04 1834.12 4197.71 1817.28 4212.1C1799.79 4227.03 1785.19 4239.5 1775 4239.5C1755 4239.5 1678 4295 1703.5 4317C1729 4339 1738 4324.5 1738 4324.5C1738 4324.5 1768.67 4313.83 1781 4309.5C1793.33 4305.17 1799.42 4332.22 1800 4349.5C1800.1 4352.57 1800.51 4355.94 1800.92 4359.34C1802.55 4372.84 1804.27 4387.03 1787.5 4386.5C1766.5 4385.83 1721.3 4387.4 1708.5 4399C1697.31 4409.14 1701.78 4421 1705.47 4430.81C1707.06 4435.01 1708.5 4438.85 1708.5 4442C1708.5 4450.4 1685.5 4463.17 1674 4468.5C1669.04 4476.06 1661.52 4483.36 1653.19 4491.44L1653.19 4491.44L1653.17 4491.46C1644.98 4499.4 1636.03 4508.09 1628 4518.5C1623.79 4523.96 1622.1 4529.05 1620.48 4533.94C1617.77 4542.09 1615.26 4549.68 1601.5 4557.5C1586.32 4566.13 1578.28 4557.85 1568.19 4547.45C1563.65 4542.78 1558.7 4537.68 1552.5 4533.5C1536.5 4522.7 1506.5 4545 1493.5 4557.5C1485.68 4566.42 1478.94 4577.26 1471.7 4588.94C1462.42 4603.87 1452.31 4620.16 1438 4635.5C1403.13 4672.89 1365.97 4693.1 1329.96 4712.68C1322.75 4716.6 1315.59 4720.5 1308.5 4724.5C1296.79 4733.23 1287.09 4745.54 1277 4758.34C1259.95 4779.97 1241.8 4803 1211 4812.5C1189.41 4819.16 1171.67 4822.67 1153.5 4819C1137.33 4813.33 1098.5 4805.4 1072.5 4819C1052.03 4829.71 1053.46 4834.88 1054.78 4839.6C1055.55 4842.38 1056.28 4845 1052.5 4848.5C1027.8 4871.38 969.5 4887 967.5 4863C965.5 4839 901.5 4833.5 892 4833.5C890.011 4833.5 884.983 4832.07 877.964 4830.07C858.166 4824.42 822.522 4814.27 794.5 4819C785.1 4820.59 778.268 4823.46 771.343 4826.36C764.992 4829.03 758.562 4831.73 750 4833.5C725.501 4838.58 701.557 4833.78 680.226 4829.51C663.341 4826.12 648.092 4823.07 635.5 4825.5C616.521 4829.16 590.225 4865.64 571.673 4891.38C562.366 4904.29 555.008 4914.5 551.5 4916.5C543.163 4921.26 548.002 4969.87 551.422 5004.22L551.5 5005C552.077 5010.79 552.497 5017.14 552.919 5023.5C554.261 5043.76 555.607 5064.06 562 5066.5C572.5 5070.5 562 5096 551.5 5107.5C545.503 5114.07 536.9 5111.98 527.269 5109.64C520.036 5107.88 512.224 5105.98 504.5 5107.5C495.111 5109.35 487.334 5113.04 480.154 5116.45L480.15 5116.45L480.147 5116.46L480.143 5116.46C475.084 5118.86 470.321 5121.12 465.5 5122.5C463.197 5120.39 461.521 5116.83 459.667 5112.88C456.825 5106.83 453.568 5099.9 447 5096C433.89 5088.21 422.559 5091.49 408.068 5095.69L407 5096C392.949 5100.06 384.624 5107.9 375.609 5116.4L375.6 5116.4L375.589 5116.42L375.58 5116.42C373.453 5118.43 371.288 5120.47 369 5122.5C363.5 5129.17 349.3 5141.8 336.5 5139C329.91 5137.56 327.476 5131.96 325.286 5126.92C322.158 5119.73 319.527 5113.68 306 5122.5C284.7 5136.39 292.988 5147.71 303.464 5162.01C304.3 5163.16 305.15 5164.32 306 5165.5C316.746 5180.45 304.79 5194.96 288.491 5214.75C287.346 5216.14 286.181 5217.56 285 5219C270.6 5236.6 246 5244.67 235.5 5246.5C230.247 5247.42 227.803 5241.69 225.017 5235.15C222.233 5228.63 219.108 5221.3 212.5 5219C204.098 5216.08 197.244 5222.74 190.67 5229.13C183.792 5235.81 177.219 5242.2 169.5 5237C160.834 5231.16 160.246 5221.33 159.689 5211.99C159.525 5209.25 159.364 5206.54 159 5204Z" fill="#83B5A9"/>
<path d="M2717.57 4540C2672.51 4582.08 2567.98 4637.56 2549 4631.91L2673.05 4977.7V5074.88C2673.05 5102.76 2680.55 5198.43 2699.06 5203.71C2717.57 5208.98 2780.05 5224.5 2832.12 5220.28C2915.36 5213.53 3037.7 5133.64 3037.7 5133.64C3037.7 5133.64 3134.8 5041 3195.26 4977.7C3231.01 4940.28 3257.79 4873.74 3285.8 4879.76C3313.81 4885.79 3365.33 4912.91 3361.83 4879.76C3358.33 4846.62 3344.82 4771.28 3330.32 4768.27C3315.81 4765.25 3262.29 4717.79 3241.78 4768.27C3221.27 4818.74 3153.48 4916.29 3076.71 4941.54C3006.73 4964.55 2955.49 4960.49 2895.14 4902.36C2855.86 4864.53 2844.47 4823.42 2815.61 4768.27C2771.98 4684.88 2749.58 4610.56 2717.57 4540Z" fill="#BBCB79"/>
<path d="M2637.5 3092C2650.33 3100.83 2678.4 3121.5 2688 3133.5C2700 3148.5 2720 3189 2731 3186.5C2742 3184 2801 3204 2804.5 3212.5C2808 3221 2845.5 3241.5 2844 3254C2842.5 3266.5 2863 3311.5 2853.5 3321.5C2844 3331.5 2841.5 3280.5 2823 3285C2804.5 3289.5 2815.5 3246.5 2804.5 3254C2793.5 3261.5 2731 3242 2731 3237C2731 3232 2676.5 3208.5 2676.5 3197.5C2676.5 3186.5 2646 3163.5 2637.5 3156C2630.7 3150 2606.67 3118.83 2595.5 3104L2637.5 3092Z" fill="#89CB79"/>
</svg>
