<svg width="180" height="89" viewBox="0 0 180 89" fill="none" xmlns="http://www.w3.org/2000/svg">
<path d="M165 24C173.284 24 180 32.7304 180 43.5C180 54.2696 173.284 63 165 63H15C6.71573 63 0 54.2696 0 43.5C0 32.7304 6.71573 24 15 24H165Z" fill="#DA251D"/>
<path d="M89.9993 77.7832C108.409 77.7832 123.333 62.8594 123.333 44.4499C123.333 26.0404 108.409 11.1166 89.9993 11.1166C71.5899 11.1166 56.666 26.0404 56.666 44.4499C56.666 62.8594 71.5899 77.7832 89.9993 77.7832Z" fill="white"/>
<path d="M112.204 44.4499C112.204 32.1769 102.26 22.2331 89.987 22.2331C77.714 22.2331 67.7702 32.1769 67.7702 44.4499C67.7702 56.7229 77.714 66.6667 89.987 66.6667C102.26 66.6667 112.204 56.7229 112.204 44.4499ZM134.437 44.4499C134.437 68.9959 114.533 88.8997 89.987 88.8997C65.441 88.8997 45.5371 68.9959 45.5371 44.4499C45.5371 19.9039 65.441 0 89.987 0C114.533 0 134.437 19.9039 134.437 44.4499Z" fill="#DA251D"/>
</svg>
